<?xml version="1.0" standalone="no"?>
<!DOCTYPE svg PUBLIC "-//W3C//DTD SVG 20010904//EN"
 "http://www.w3.org/TR/2001/REC-SVG-20010904/DTD/svg10.dtd">
<svg version="1.0" xmlns="http://www.w3.org/2000/svg"
 width="700.000000pt" height="700.000000pt" viewBox="0 0 700.000000 700.000000"
 preserveAspectRatio="xMidYMid meet">
<metadata>
Created by potrace 1.11, written by Peter Selinger 2001-2013
</metadata>
<g transform="translate(0.000000,700.000000) scale(0.100000,-0.100000)"
fill="#000000" stroke="none">
<path d="M3215 6678 c-33 -4 -82 -9 -110 -12 -27 -3 -60 -8 -71 -10 -12 -2
-39 -7 -60 -11 -71 -11 -92 -15 -181 -36 -82 -19 -257 -69 -313 -89 -367 -133
-667 -299 -965 -535 -93 -74 -336 -308 -416 -400 -70 -81 -178 -224 -228 -301
l-52 -79 256 -85 257 -85 21 26 c12 15 49 62 82 105 73 95 293 318 395 401
199 160 457 313 685 405 150 61 389 131 472 140 5 0 17 4 28 8 12 4 50 11 85
15 36 4 67 8 70 10 3 2 41 6 85 9 80 7 105 20 105 54 0 13 94 426 106 465 5
17 -1 18 -93 15 -54 -2 -125 -6 -158 -10z"/>
<path d="M3580 6685 c0 -4 14 -67 31 -139 17 -72 33 -144 36 -161 3 -16 9 -38
14 -47 5 -10 8 -18 5 -18 -6 0 32 -142 41 -151 4 -4 37 -10 73 -13 134 -12
262 -34 410 -71 341 -85 724 -276 1000 -499 164 -133 339 -308 434 -436 23
-30 47 -61 54 -68 6 -8 16 -22 22 -32 9 -16 18 -15 142 27 73 25 140 47 148
48 8 2 65 21 127 42 l111 38 -61 90 c-444 651 -1105 1112 -1872 1304 -66 16
-140 33 -165 36 -25 4 -67 11 -95 16 -27 6 -72 12 -100 15 -27 3 -61 7 -75 10
-50 9 -280 16 -280 9z"/>
<path d="M3160 5643 c-416 -67 -845 -285 -1150 -585 -135 -131 -183 -187 -168
-193 181 -65 1104 -365 1112 -362 6 3 19 40 28 83 10 44 60 264 113 489 52
226 97 419 100 430 11 54 15 68 20 86 3 10 8 28 11 39 6 21 -5 23 -66 13z"/>
<path d="M3824 5623 c2 -15 16 -75 29 -133 59 -252 119 -507 123 -528 2 -13
18 -83 35 -155 41 -174 40 -170 43 -182 1 -5 8 -36 15 -67 7 -32 18 -58 24
-58 10 0 1105 360 1116 367 12 8 -189 216 -279 289 -19 16 -37 31 -40 34 -17
17 -138 103 -210 149 -209 131 -520 256 -715 287 -22 3 -43 8 -46 9 -3 2 -27
7 -53 10 l-47 7 5 -29z"/>
<path d="M736 5066 c-170 -290 -322 -721 -370 -1051 -4 -22 -9 -53 -11 -70 -3
-16 -7 -42 -9 -56 -20 -127 -27 -530 -13 -674 36 -347 95 -596 209 -890 47
-120 181 -399 210 -438 12 -14 36 6 206 173 l193 189 -30 59 c-40 80 -97 217
-133 322 -35 102 -94 336 -103 411 -4 30 -8 56 -10 59 -2 3 -6 37 -10 77 -4
40 -8 85 -11 100 -6 42 -6 383 0 423 3 19 8 59 11 88 2 30 7 68 10 85 2 18 7
49 10 69 14 104 81 361 120 458 57 145 82 204 112 263 l34 69 -108 105 c-59
57 -147 143 -194 190 l-86 85 -27 -46z"/>
<path d="M6089 4923 l-192 -190 55 -119 c75 -161 163 -418 182 -529 2 -16 10
-55 16 -85 6 -30 13 -71 16 -90 2 -19 6 -42 9 -50 19 -69 27 -474 12 -625 -13
-127 -36 -261 -68 -390 -32 -126 -90 -305 -114 -352 -8 -16 -15 -32 -15 -36 0
-5 -20 -51 -45 -104 -25 -52 -45 -97 -45 -100 0 -10 372 -368 383 -368 23 0
192 351 254 528 30 86 82 252 87 281 2 12 13 62 24 111 12 50 24 110 27 135 4
24 8 47 10 50 2 3 7 40 11 81 3 40 8 77 10 80 2 3 6 58 10 121 20 352 -6 660
-83 978 -25 105 -84 299 -108 355 -7 17 -28 68 -46 114 -33 84 -154 332 -183
372 -14 21 -20 15 -207 -168z"/>
<path d="M1504 4323 c-71 -170 -134 -423 -152 -613 -9 -95 -8 -366 0 -445 7
-54 14 -101 32 -202 19 -104 76 -292 125 -417 l12 -29 47 45 c26 25 145 141
265 259 120 118 300 294 400 392 l182 177 -230 227 c-126 124 -325 320 -441
435 -116 114 -214 208 -218 208 -3 0 -13 -17 -22 -37z"/>
<path d="M5344 4192 c-95 -92 -294 -287 -444 -433 l-271 -267 59 -58 c33 -33
225 -221 427 -419 203 -198 376 -368 386 -379 17 -17 18 -17 35 15 17 33 90
250 98 293 3 11 11 50 20 86 31 135 46 277 48 451 2 262 -46 533 -137 774 -14
39 -29 78 -32 88 -3 9 -8 17 -12 17 -3 0 -83 -76 -177 -168z"/>
<path d="M2393 2302 l-562 -187 35 -40 c264 -297 543 -491 903 -626 118 -45
315 -97 424 -112 34 -5 37 -4 32 13 -4 11 -8 32 -11 47 -3 16 -9 44 -14 63 -5
19 -11 46 -14 60 -3 14 -19 86 -36 160 -18 74 -33 142 -35 150 -2 8 -18 76
-35 150 -17 74 -33 143 -35 153 -2 10 -6 26 -9 35 -3 9 -7 28 -10 42 -2 14 -9
43 -14 65 -6 22 -14 54 -17 70 -3 17 -11 53 -19 82 -8 28 -11 54 -8 57 3 3 1
6 -4 6 -5 0 -262 -85 -571 -188z"/>
<path d="M4078 2463 c-3 -15 -22 -100 -42 -188 -21 -88 -39 -167 -41 -175 -2
-8 -11 -46 -19 -85 -9 -38 -20 -88 -26 -110 -34 -145 -42 -180 -45 -194 -2 -9
-15 -68 -30 -131 -15 -63 -29 -128 -32 -144 -2 -16 -9 -40 -14 -53 -16 -42
-12 -51 24 -47 196 22 562 149 742 257 59 36 214 136 231 150 10 8 48 39 84
68 67 54 300 287 300 299 0 4 -249 89 -552 190 -304 101 -558 185 -564 187 -6
3 -14 -8 -16 -24z"/>
<path d="M1077 1866 c-136 -46 -249 -85 -252 -88 -7 -7 160 -246 220 -314 6
-7 30 -36 55 -65 51 -59 244 -256 305 -309 157 -137 372 -290 555 -393 235
-132 567 -261 835 -324 63 -14 298 -54 340 -58 28 -2 70 -6 95 -9 25 -3 89 -8
143 -11 91 -5 98 -4 93 12 -4 15 -16 66 -31 133 -2 8 -17 74 -34 145 -17 72
-36 154 -42 183 -8 35 -17 52 -28 53 -9 0 -25 2 -36 4 -11 1 -47 6 -80 9 -119
13 -211 30 -340 62 -55 14 -107 27 -115 29 -8 2 -54 17 -101 34 -395 140 -715
337 -994 610 -140 137 -218 225 -295 334 -18 26 -36 47 -39 46 -3 0 -117 -38
-254 -83z"/>
<path d="M5684 1913 c-137 -185 -350 -404 -522 -536 -239 -183 -453 -298 -782
-422 -39 -14 -221 -65 -260 -72 -14 -2 -45 -9 -70 -15 -25 -5 -58 -12 -75 -14
-16 -2 -43 -7 -60 -9 -16 -3 -52 -8 -80 -11 -115 -11 -133 -15 -139 -31 -6
-14 -40 -162 -52 -223 -3 -14 -12 -52 -21 -85 -8 -33 -17 -71 -19 -85 -3 -14
-9 -41 -14 -60 -17 -62 -19 -60 88 -55 492 25 968 161 1397 398 113 62 321
199 406 266 35 29 82 66 104 84 80 64 353 345 434 447 110 138 205 280 194
290 -4 4 -114 42 -243 85 -129 43 -240 80 -246 82 -7 2 -25 -13 -40 -34z"/>
</g>
</svg>
