<svg id="Layer_1" data-name="Layer 1" xmlns="http://www.w3.org/2000/svg" width="97.69" height="97.69" viewBox="0 0 97.69 97.69">
  <title>youtube-white</title>
  <path id="twitter-4-icon" d="M49.35,13.42a36,36,0,1,0,36,36h0A36,36,0,0,0,49.35,13.42ZM36.14,28.68h2.49l1.71,6.4,1.58-6.4h2.56L41.6,38.2v6.5H39.08V38.2Zm11.4,4.1a3,3,0,0,0-3.22,3.17v5.79c0,2.08,1.09,3.17,3.22,3.17a3,3,0,0,0,3.16-3.17V35.95a3.08,3.08,0,0,0-3-3.17H47.54Zm0.94,8.87a1,1,0,0,1-.87,1.12h0a1,1,0,0,1-1-1.12v-5.5a1,1,0,1,1,1.88,0v5.5h0Zm8.18-8.77v9a2.3,2.3,0,0,1-1.29.89c-0.47,0-.58-0.32-0.58-0.8V32.88h-2.2v9.87c0,1.17.36,2.11,1.53,2.11a3.47,3.47,0,0,0,2.54-1.47v1.3h2.2V32.88h-2.2Zm3.82,24c-0.77,0-.94.54-0.94,1.32v1.14h1.84V58.16c0-.76-0.18-1.32-0.9-1.32h0v0Zm-8.13.07a1.6,1.6,0,0,0-.43.34v7a1.83,1.83,0,0,0,.5.4,0.89,0.89,0,0,0,1.06-.11,1.3,1.3,0,0,0,.18-0.78V58a1.42,1.42,0,0,0-.18-0.86,0.87,0.87,0,0,0-1.13-.19v0Zm8.35-9c-4.54-.37-19.22-0.37-23.67,0-4.87.33-5.44,3.27-5.48,11s0.61,10.68,5.48,11c4.5,0.31,19.13.31,23.63,0,4.87-.33,5.44-3.27,5.48-11s-0.66-10.67-5.48-11ZM39.35,66.41H37v-13H34.55V51.15h7.23v2.21H39.35v13h0v0.05Zm8.38,0H45.64V65.16a4.57,4.57,0,0,1-1.2,1c-1.13.65-2.68,0.63-2.68-1.65v-9.4h2.09v8.67c0,0.45.11,0.76,0.56,0.76a2.18,2.18,0,0,0,1.23-.84V55.16h2.09V66.41h0Zm8-2.33c0,1.39-.52,2.47-1.91,2.47a2.39,2.39,0,0,1-2-1v0.86h-2.1V51.15h2.16v4.91a2.51,2.51,0,0,1,1.86-1c1.53,0,2,1.3,2,2.82v6.24h0v0Zm7.73-3h-4V63.2c0,0.84.07,1.57,0.91,1.57s0.94-.59.94-1.57V62.39h2.15v0.85c0,2.17-.93,3.48-3.14,3.48-2,0-3-1.46-3-3.48V58.18a3.09,3.09,0,0,1,2.86-3.3h0.28c2,0,3,1.28,3,3.31V61h0Z" style="fill: none"/>
</svg>
