<?xml version="1.0" encoding="UTF-8"?>
<svg xmlns="http://www.w3.org/2000/svg" id="Layer_1" viewBox="0 0 3933.35 983.31">
  <defs>
    <style>.cls-1{fill:#fff;}.cls-2{fill:none;stroke:#fff;stroke-miterlimit:10;stroke-width:15px;}.cls-3{font-size:217px;fill:#dc1d24;font-family:ArcherPro-Bold, ArcherPro;font-weight:700;}.cls-4{letter-spacing:-0.01em;}.cls-5{letter-spacing:-0.01em;}.cls-6{letter-spacing:0em;}.cls-7{letter-spacing:-0.01em;}.cls-8{font-size:170px;font-family:National-Semibold, National;letter-spacing:0.03em;}.cls-9{letter-spacing:-0.02em;}</style>
  </defs>
  <title>logos</title>
  <polygon class="cls-1" points="462.51 491.62 462.49 491.66 462.51 491.69 462.56 491.69 462.58 491.66 462.56 491.62 462.51 491.62"></polygon>
  <path class="cls-1" d="M602.74,377.59a180.51,180.51,0,0,0-115.85-65l22.22,96.13Z"></path>
  <path class="cls-1" d="M322.33,377.59,416,408.68l22.22-96.13A180.51,180.51,0,0,0,322.33,377.59Z"></path>
  <path class="cls-1" d="M643.28,491.66a180.11,180.11,0,0,0-15.15-72.51l-74,72.51,74,72.51A180.11,180.11,0,0,0,643.28,491.66Z"></path>
  <path class="cls-1" d="M602.74,605.72l-93.63-31.09-22.22,96.13A180.51,180.51,0,0,0,602.74,605.72Z"></path>
  <path class="cls-1" d="M322.33,605.72a180.51,180.51,0,0,0,115.85,65L416,574.63Z"></path>
  <path class="cls-1" d="M281.79,491.66a180.11,180.11,0,0,0,15.15,72.51l74-72.51-74-72.51A180.11,180.11,0,0,0,281.79,491.66Z"></path>
  <path class="cls-1" d="M238.37,349.71l42.8,14.21a221.58,221.58,0,0,1,166.77-93.59l10.15-43.92A265.1,265.1,0,0,0,238.37,349.71Z"></path>
  <path class="cls-1" d="M691.31,357.27,659.1,388.82a222.08,222.08,0,0,1,0,205.68L691.31,626a265.47,265.47,0,0,0,0-268.76Z"></path>
  <path class="cls-1" d="M643.89,363.92l42.8-14.21A265.1,265.1,0,0,0,467,226.41l10.15,43.92A221.58,221.58,0,0,1,643.89,363.92Z"></path>
  <path class="cls-1" d="M477.13,713,467,756.9A265.1,265.1,0,0,0,686.7,633.6l-42.8-14.21A221.58,221.58,0,0,1,477.13,713Z"></path>
  <path class="cls-1" d="M240.72,491.66A220.83,220.83,0,0,1,266,388.82l-32.21-31.54a265.47,265.47,0,0,0,0,268.76L266,594.49A220.83,220.83,0,0,1,240.72,491.66Z"></path>
  <path class="cls-1" d="M281.18,619.39l-42.8,14.21A265.1,265.1,0,0,0,458.1,756.9L447.94,713A221.58,221.58,0,0,1,281.18,619.39Z"></path>
  <line class="cls-2" x1="942.6" y1="177.09" x2="942.6" y2="806.23"></line>
  <text class="cls-3" transform="translate(1074.04 450.25)">
    <tspan class="cls-4">K</tspan>
    <tspan x="145.17" y="0">ent </tspan>
    <tspan class="cls-5" x="505.39" y="0">R</tspan>
    <tspan x="638.63" y="0">oo</tspan>
    <tspan class="cls-6" x="870.38" y="0">s</tspan>
    <tspan x="969.12" y="0">e</tspan>
    <tspan class="cls-7" x="1077.62" y="0">v</tspan>
    <tspan x="1191.33" y="0">elt </tspan>
    <tspan class="cls-8">
      <tspan x="0" y="205">CAREER TECHNICAL EDUC</tspan>
      <tspan class="cls-9" x="1940.51" y="205">A</tspan>
      <tspan x="2038.26" y="205">TION</tspan>
    </tspan>
  </text>
</svg>
